<?xml version="1.0" encoding="UTF-8"?>
<!DOCTYPE svg PUBLIC "-//W3C//DTD SVG 1.1//EN" "http://www.w3.org/Graphics/SVG/1.1/DTD/svg11.dtd">
<svg xmlns="http://www.w3.org/2000/svg" version="1.1" width="2000px" height="1500px" style="shape-rendering:geometricPrecision; text-rendering:geometricPrecision; image-rendering:optimizeQuality; fill-rule:evenodd; clip-rule:evenodd" xmlns:xlink="http://www.w3.org/1999/xlink">
<g><path style="opacity:1" fill="#4c51bf" d="M 263.5,341.5 C 281.5,341.5 299.5,341.5 317.5,341.5C 317.333,386.501 317.5,431.501 318,476.5C 351.5,431.667 385,386.833 418.5,342C 438.833,341.333 459.167,341.333 479.5,342C 451.045,379.744 422.712,417.577 394.5,455.5C 422.706,507.413 451.04,559.247 479.5,611C 459.167,611.667 438.833,611.667 418.5,611C 398.54,574.914 378.706,538.747 359,502.5C 345.333,520.833 331.667,539.167 318,557.5C 317.5,575.497 317.333,593.497 317.5,611.5C 299.5,611.5 281.5,611.5 263.5,611.5C 263.5,521.5 263.5,431.5 263.5,341.5 Z"/></g>
<g><path style="opacity:1" fill="#4c51bf" d="M 891.5,341.5 C 963.5,341.5 1035.5,341.5 1107.5,341.5C 1107.5,359.5 1107.5,377.5 1107.5,395.5C 1080.5,395.5 1053.5,395.5 1026.5,395.5C 1026.5,467.5 1026.5,539.5 1026.5,611.5C 1008.5,611.5 990.5,611.5 972.5,611.5C 972.5,539.5 972.5,467.5 972.5,395.5C 945.5,395.5 918.5,395.5 891.5,395.5C 891.5,377.5 891.5,359.5 891.5,341.5 Z"/></g>
<g><path style="opacity:1" fill="#4c51bf" d="M 567.5,402.5 C 603.587,399.912 633.753,411.912 658,438.5C 660.029,441.029 661.862,443.696 663.5,446.5C 631.312,484.854 599.312,523.354 567.5,562C 593.542,567.065 613.042,557.898 626,534.5C 638.5,547 651,559.5 663.5,572C 634.858,609.106 597.525,622.44 551.5,612C 508.621,597.78 483.787,568.28 477,523.5C 472.399,484.289 484.566,451.456 513.5,425C 529.593,412.783 547.593,405.283 567.5,402.5 Z M 570.5,454.5 C 576.509,454.334 582.509,454.501 588.5,455C 590.384,455.216 592.051,455.883 593.5,457C 573.545,483.077 553.712,509.244 534,535.5C 531.89,532.508 530.557,529.175 530,525.5C 524.534,501.912 530.368,481.746 547.5,465C 554.506,459.827 562.173,456.327 570.5,454.5 Z"/></g>
<g><path style="opacity:1" fill="#4c51bf" d="M 1635.5,402.5 C 1675.82,399.665 1708.15,414.165 1732.5,446C 1700.5,484.667 1668.5,523.333 1636.5,562C 1662.54,567.065 1682.04,557.898 1695,534.5C 1707.52,546.69 1719.69,559.19 1731.5,572C 1714.34,596.762 1690.67,611.095 1660.5,615C 1616.46,618.228 1582.62,601.395 1559,564.5C 1545.31,538.224 1541.64,510.558 1548,481.5C 1560.63,436.695 1589.8,410.361 1635.5,402.5 Z M 1639.5,454.5 C 1645.51,454.334 1651.51,454.501 1657.5,455C 1659.38,455.216 1661.05,455.883 1662.5,457C 1642.28,483.048 1622.28,509.215 1602.5,535.5C 1600.65,532.798 1599.49,529.798 1599,526.5C 1593.17,501.956 1599.34,481.123 1617.5,464C 1624.34,459.409 1631.67,456.242 1639.5,454.5 Z"/></g>
<g><path style="opacity:1" fill="#4c51bf" d="M 1417.5,402.5 C 1462.65,401.647 1495.82,420.98 1517,460.5C 1531.84,497.258 1530.17,533.258 1512,568.5C 1489.85,601.659 1458.68,617.492 1418.5,616C 1402.09,613.379 1386.93,607.546 1373,598.5C 1372.5,628.498 1372.33,658.498 1372.5,688.5C 1355.17,688.5 1337.83,688.5 1320.5,688.5C 1320.5,595.833 1320.5,503.167 1320.5,410.5C 1324.85,410.334 1329.18,410.501 1333.5,411C 1339.64,418.972 1346.31,426.472 1353.5,433.5C 1371.75,416.707 1393.09,406.373 1417.5,402.5 Z M 1414.5,454.5 C 1437.43,451.554 1455.26,459.554 1468,478.5C 1477.58,498.011 1477.91,517.678 1469,537.5C 1455.95,558.603 1437.12,567.103 1412.5,563C 1386.33,554.714 1373,536.714 1372.5,509C 1373.36,480.346 1387.36,462.18 1414.5,454.5 Z"/></g>
<g><path style="opacity:1" fill="#4c51bf" d="M 687.5,410.5 C 704.5,410.5 721.5,410.5 738.5,410.5C 738.028,452.539 738.528,494.539 740,536.5C 745.69,554.515 758.024,563.848 777,564.5C 797.064,562.12 809.731,551.12 815,531.5C 816.465,491.201 816.965,450.868 816.5,410.5C 833.5,410.5 850.5,410.5 867.5,410.5C 867.667,473.501 867.5,536.501 867,599.5C 857.846,647.655 829.346,677.155 781.5,688C 767.173,689.722 752.839,689.889 738.5,688.5C 738.5,671.5 738.5,654.5 738.5,637.5C 750.505,637.667 762.505,637.5 774.5,637C 791.92,633.244 804.253,623.244 811.5,607C 811.167,606.5 810.833,606 810.5,605.5C 771.472,622.794 737.305,615.794 708,584.5C 696.962,570.412 690.295,554.412 688,536.5C 687.5,494.501 687.333,452.501 687.5,410.5 Z"/></g>
<g><path style="opacity:1" fill="#4c51bf" d="M 1100.5,410.5 C 1117.5,410.5 1134.5,410.5 1151.5,410.5C 1151.03,452.201 1151.53,493.867 1153,535.5C 1161.66,559.746 1178.49,568.579 1203.5,562C 1215.77,555.644 1223.94,545.811 1228,532.5C 1229.47,491.873 1229.97,451.206 1229.5,410.5C 1246.83,410.5 1264.17,410.5 1281.5,410.5C 1281.67,470.168 1281.5,529.834 1281,589.5C 1276.29,640.753 1249.12,673.253 1199.5,687C 1183.56,689.609 1167.56,690.109 1151.5,688.5C 1151.5,671.5 1151.5,654.5 1151.5,637.5C 1163.5,637.667 1175.5,637.5 1187.5,637C 1205.24,632.927 1217.91,622.594 1225.5,606C 1185.8,623.06 1150.97,615.893 1121,584.5C 1109.64,569.766 1102.97,553.099 1101,534.5C 1100.5,493.168 1100.33,451.835 1100.5,410.5 Z"/></g>
<g><path style="opacity:1" fill="#4c51bf" d="M 683.5,710.5 C 886.5,710.333 1089.5,710.5 1292.5,711C 1309.33,714.5 1319.5,724.667 1323,741.5C 1323.67,869.833 1323.67,998.167 1323,1126.5C 1319.39,1143.77 1308.89,1153.94 1291.5,1157C 1089.17,1157.67 886.833,1157.67 684.5,1157C 665.065,1152.56 654.565,1140.4 653,1120.5C 652.333,995.833 652.333,871.167 653,746.5C 655.092,727.581 665.258,715.581 683.5,710.5 Z M 727.5,766.5 C 752.5,766.5 777.5,766.5 802.5,766.5C 802.5,791.167 802.5,815.833 802.5,840.5C 777.5,840.5 752.5,840.5 727.5,840.5C 727.5,815.833 727.5,791.167 727.5,766.5 Z M 839.5,766.5 C 864.167,766.5 888.833,766.5 913.5,766.5C 913.5,791.167 913.5,815.833 913.5,840.5C 888.833,840.5 864.167,840.5 839.5,840.5C 839.5,815.833 839.5,791.167 839.5,766.5 Z M 950.5,766.5 C 975.5,766.5 1000.5,766.5 1025.5,766.5C 1025.5,791.167 1025.5,815.833 1025.5,840.5C 1000.5,840.5 975.5,840.5 950.5,840.5C 950.5,815.833 950.5,791.167 950.5,766.5 Z M 1062.5,766.5 C 1087.5,766.5 1112.5,766.5 1137.5,766.5C 1137.5,791.167 1137.5,815.833 1137.5,840.5C 1112.5,840.5 1087.5,840.5 1062.5,840.5C 1062.5,815.833 1062.5,791.167 1062.5,766.5 Z M 1174.5,766.5 C 1199.5,766.5 1224.5,766.5 1249.5,766.5C 1249.5,791.167 1249.5,815.833 1249.5,840.5C 1224.5,840.5 1199.5,840.5 1174.5,840.5C 1174.5,815.833 1174.5,791.167 1174.5,766.5 Z M 783.5,896.5 C 808.167,896.5 832.833,896.5 857.5,896.5C 857.5,921.5 857.5,946.5 857.5,971.5C 832.833,971.5 808.167,971.5 783.5,971.5C 783.5,946.5 783.5,921.5 783.5,896.5 Z M 895.5,896.5 C 920.167,896.5 944.833,896.5 969.5,896.5C 969.5,921.5 969.5,946.5 969.5,971.5C 944.833,971.5 920.167,971.5 895.5,971.5C 895.5,946.5 895.5,921.5 895.5,896.5 Z M 1006.5,896.5 C 1031.5,896.5 1056.5,896.5 1081.5,896.5C 1081.5,921.5 1081.5,946.5 1081.5,971.5C 1056.83,971.667 1032.16,971.5 1007.5,971C 1006.51,946.241 1006.17,921.408 1006.5,896.5 Z M 1118.5,896.5 C 1143.5,896.5 1168.5,896.5 1193.5,896.5C 1193.5,921.5 1193.5,946.5 1193.5,971.5C 1168.5,971.5 1143.5,971.5 1118.5,971.5C 1118.5,946.5 1118.5,921.5 1118.5,896.5 Z M 839.5,1027.5 C 938.833,1027.5 1038.17,1027.5 1137.5,1027.5C 1137.5,1052.17 1137.5,1076.83 1137.5,1101.5C 1038.17,1101.5 938.833,1101.5 839.5,1101.5C 839.5,1076.83 839.5,1052.17 839.5,1027.5 Z"/></g>
</svg>
